Coordinates
version=1
nRows=22
nColumns=24
inDegrees=yes

Units are S.I. units (second, meters, Newtons, ...)
Angles are in degrees.

endheader
time	pelvis_tilt	pelvis_list	pelvis_rotation	pelvis_tx	pelvis_ty	pelvis_tz	hip_flexion_r	hip_adduction_r	hip_rotation_r	knee_angle_r	ankle_angle_r	subtalar_angle_r	mtp_angle_r	hip_flexion_l	hip_adduction_l	hip_rotation_l	knee_angle_l	ankle_angle_l	subtalar_angle_l	mtp_angle_l	lumbar_extension	lumbar_bending	lumbar_rotation
      5.53000000	      5.69836631	     -2.71454668	    -11.30996713	      1.37650179	      0.66237094	     -0.18259669	    -23.00413222	      1.47230482	      9.75772613	    -16.47117808	     16.57797434	      1.88014511	      0.00000000	     15.23582487	     -5.22821873	      1.43360886	     -3.49767365	      0.67206807	    -11.73431716	      0.00000000	    -21.44755806	     -6.50761356	     21.77812674
      5.54000000	      5.83261514	     -1.99767958	    -11.31966258	      1.39028831	      0.66091725	     -0.18445907	    -23.06757001	      0.56054178	      9.36978831	    -18.48590267	     14.95548303	      1.16305528	      0.00000000	     15.77744733	     -4.11307611	      0.87112103	     -6.30696555	     -1.05590297	    -13.76120367	      0.00000000	    -21.07504581	     -6.96672014	     21.31920819
      5.55000000	      5.93580667	     -1.09723159	    -11.16818314	      1.40420475	      0.65975446	     -0.18639710	    -22.96608134	     -0.38778498	      8.87197516	    -20.61340186	     12.68778892	     -0.03230091	      0.00000000	     16.41861632	     -2.83446190	     -0.05486990	     -9.16368534	     -2.81498349	    -15.42879107	      0.00000000	    -20.64049715	     -7.60003827	     20.60534923
      5.56000000	      6.06558485	     -0.07654974	    -10.87964892	      1.41807200	      0.65901852	     -0.18836937	    -22.69268385	     -1.33241235	      8.19100828	    -22.92967067	      9.59949690	     -1.73115238	      0.00000000	     16.98866158	     -1.45870644	     -1.04061434	    -11.87769265	     -4.19367720	    -16.62117460	      0.00000000	    -20.28504516	     -8.37603006	     19.80974127
      5.57000000	      6.23205729	      1.04148575	    -10.57298861	      1.43176144	      0.65874309	     -0.19024815	    -22.17106688	     -2.29013490	      7.48363977	    -25.55800159	      5.70726237	     -3.90153051	      0.00000000	     17.40084872	     -0.02523422	     -2.04139762	    -14.40904511	     -4.62388800	    -17.16968880	      0.00000000	    -20.04978404	     -9.31574933	     18.93472488
      5.58000000	      6.44235453	      2.14475442	    -10.33283958	      1.44512146	      0.65890710	     -0.19194651	    -21.33745721	     -3.19582384	      6.81080685	    -28.59363281	      1.03879231	     -6.59046410	      0.00000000	     17.58993988	      1.34211936	     -3.05151618	    -16.74083528	     -3.96560723	    -16.91158107	      0.00000000	    -19.97925211	    -10.31515259	     18.22766242
      5.59000000	      6.65756917	      3.24043476	    -10.24272553	      1.45808719	      0.65935395	     -0.19339310	    -20.07466938	     -4.09776088	      6.24800316	    -32.17122587	     -3.77144026	     -9.42107760	      0.00000000	     17.58174361	      2.61778439	     -4.22169564	    -18.85870730	     -2.07024942	    -15.65072097	      0.00000000	    -20.01734868	    -11.38207319	     17.60429752
      5.60000000	      6.77011037	      4.32101844	    -10.39134841	      1.47057027	      0.65989320	     -0.19456910	    -18.23008697	     -5.00782710	      5.92701444	    -36.32919340	     -8.23392654	    -12.42003794	      0.00000000	     17.38984518	      3.84111352	     -5.22931580	    -20.48935734	      0.05415652	    -14.57965165	      0.00000000	    -20.01397889	    -12.48578160	     17.19754384
      5.61000000	      6.72196619	      5.40249857	    -10.79388344	      1.48251260	      0.66038413	     -0.19548980	    -15.75679083	     -5.93142706	      5.89194875	    -41.00409626	    -11.88274398	    -15.50692199	      0.00000000	     17.11354392	      5.02510963	     -6.16036342	    -21.59694353	      2.02060507	    -13.79719739	      0.00000000	    -19.88406388	    -13.61821579	     16.95128634
      5.62000000	      6.73178883	      6.46984927	    -11.32830911	      1.49395663	      0.66092303	     -0.19624929	    -13.04468487	     -6.84237134	      5.99310938	    -45.88747132	    -14.53892153	    -19.07433469	      0.00000000	     16.60551213	      6.20695114	     -7.07535296	    -22.30755973	      4.16523764	    -12.74360836	      0.00000000	    -19.90068283	    -14.75424090	     16.68847613
      5.63000000	      6.56296399	      7.49821021	    -11.99734662	      1.50488962	      0.66133459	     -0.19690867	     -9.89601153	     -7.63146916	      6.36710202	    -50.80066958	    -16.28896606	    -23.23020643	      0.00000000	     16.11505361	      7.36977711	     -7.77393850	    -22.54124945	      5.69727009	    -12.41398944	      0.00000000	    -19.76585243	    -15.80943056	     16.44633618
      5.64000000	      6.46652938	      8.39912814	    -12.63138881	      1.51544554	      0.66191453	     -0.19757801	     -6.78905087	     -8.21518421	      6.79861438	    -55.34915676	    -17.65832795	    -28.11870662	      0.00000000	     15.41964915	      8.47802452	     -8.29543210	    -22.45515424	      7.02895437	    -12.12182424	      0.00000000	    -19.81797553	    -16.69140394	     15.97504271
      5.65000000	      6.45137764	      9.09360996	    -13.12025587	      1.52568733	      0.66274579	     -0.19834552	     -3.83631109	     -8.50204480	      7.19826515	    -59.37546640	    -18.61392008	    -33.16234710	      0.00000000	     14.52097764	      9.47610046	     -8.55069826	    -22.14401195	      8.18150630	    -11.97148171	      0.00000000	    -20.11871946	    -17.29255219	     15.17610665
      5.66000000	      6.37088144	      9.55199679	    -13.43716104	      1.53565843	      0.66376167	     -0.19919302	     -0.90213217	     -8.43762922	      7.55239546	    -62.85195791	    -18.51565264	    -37.28795825	      0.00000000	     13.58667499	     10.27103974	     -8.59677050	    -21.68393361	      8.96796425	    -11.90466820	      0.00000000	    -20.47998669	    -17.56293540	     14.17675742
      5.67000000	      6.35336000	      9.69873634	    -13.47776068	      1.54545306	      0.66509964	     -0.20010260	      1.76942091	     -7.96818651	      7.73712084	    -65.67647660	    -17.56313545	    -40.06533392	      0.00000000	     12.45636076	     10.81646362	     -8.32626799	    -21.14956343	      9.78698471	    -11.73319047	      0.00000000	    -21.09524602	    -17.45607115	     12.87411137
      5.68000000	      6.34326221	      9.57824316	    -13.25477497	      1.55510080	      0.66665114	     -0.20103696	      4.23693912	     -7.15035935	      7.76757144	    -67.85940336	    -16.02670962	    -41.46263457	      0.00000000	     11.22924260	     11.10525518	     -7.83265792	    -20.60929292	     10.51596944	    -11.54527477	      0.00000000	    -21.86022471	    -17.00696584	     11.33226024
      5.69000000	      6.17682670	      9.26653540	    -12.82960636	      1.56461768	      0.66814080	     -0.20192185	      6.76262308	     -6.07161190	      7.65801625	    -69.53914869	    -13.09111594	    -40.54446838	      0.00000000	     10.16995424	     11.08989257	     -7.46235606	    -20.20527617	     11.39587049	    -10.90595445	      0.00000000	    -22.50700297	    -16.29869660	      9.76000967
      5.70000000	      6.10398913	      8.86841416	    -12.20986608	      1.57413404	      0.66971374	     -0.20282891	      9.04336125	     -4.97138434	      7.36950819	    -70.66162518	     -9.87100260	    -38.39504486	      0.00000000	      8.93512555	     11.01297675	     -6.85002647	    -19.71998524	     12.18505947	    -10.34075599	      0.00000000	    -23.28267520	    -15.47482802	      8.08465674
      5.71000000	      5.96449531	      8.49120330	    -11.44475708	      1.58365753	      0.67109761	     -0.20377119	     11.32183965	     -3.97975480	      6.94225529	    -71.34202883	     -6.32892701	    -35.13339465	      0.00000000	      7.76941047	     10.91118358	     -6.17760997	    -19.23649919	     12.95987164	     -9.73596796	      0.00000000	    -23.94413098	    -14.62645000	      6.39689606
      5.72000000	      5.83715049	      8.19149663	    -10.56250974	      1.59324857	      0.67231127	     -0.20477848	     13.50579832	     -3.22211891	      6.38765073	    -71.58671899	     -2.83704231	    -31.39448320	      0.00000000	      6.56929302	     10.87110683	     -5.40871636	    -18.68891173	     13.62127657	     -9.15752128	      0.00000000	    -24.55484410	    -13.82819055	      4.68829739
      5.73000000	      5.72526669	      7.94785447	     -9.61310959	      1.60291733	      0.67331855	     -0.20580854	     15.56432353	     -2.66261323	      5.77929629	    -71.38528386	      0.27974067	    -27.96580867	      0.00000000	      5.33414783	     10.86688140	     -4.54651318	    -18.10471769	     14.26961191	     -8.63994431	      0.00000000	    -25.10684779	    -13.07738496	      3.03493532
      5.74000000	      5.60978090	      7.78639718	     -8.60872442	      1.61267023	      0.67409055	     -0.20685638	     17.50451493	     -2.32225168	      5.14986628	    -70.73246200	      2.88139750	    -25.27062290	      0.00000000	      4.09317232	     10.91537459	     -3.63666794	    -17.49171592	     14.87742652	     -8.19303796	      0.00000000	    -25.58029140	    -12.40391619	      1.39919233
